<svg xmlns="http://www.w3.org/2000/svg" width="250" height="250" fill="none" viewBox="0 0 250 250">
<!-- SVG created with Arrow, by QuiverAI (https://quiver.ai) -->
  <path d="m162.5 7h-139.6c-7.93 0-12.48 7.21-12.48 13.08v209c0 7.97 5.88 13.84 12.48 13.84h139.6c8.22 0 12.43-7.28 12.43-13.84v-37.98l-1.08-1.84c-1.53-2.25-2.26-4.9-2.18-7.58l0.04-0.66-6.77 4.84v42.84c0 2.35-1.5 3.91-3.6 3.91h-138.3c-2.35 0-3.45-2.02-3.45-3.91v-208.6c0-2.54 1.55-3.81 3.45-3.81h138.2c2.56 0 3.75 2.33 3.75 3.81v49.23c4.32 2.17 7.78 4.52 9.99 6.4v-55.63c0-7.21-5.4-13.08-12.43-13.08z" fill="#14508C"/>
  <path d="m125.5 36.84h-65c-6.84 0-5.59 9.9 0.28 9.9h65c5.29 0 5.42-9.9-0.28-9.9z" fill="#14508C"/>
  <path d="m37.04 59.93c-1.99 1.89-2.68 6.25 0.75 6.25h81.68c5.64-2.37 17.75-4.13 29.55-1.4 1.13 0.28 1.29-0.11 1.29-0.11s0.58-0.14 0-3.76c-0.33-1.77-1.94-1.77-1.94-1.77h-110.6s-0.4 0.37-0.75 0.79z" fill="#14508C"/>
  <path d="m36.25 73.81c-1.47 2.12-1.53 5.9 1.76 5.9h58.02c3.76-3.46 5.59-4.64 9.65-7.18h-68.27s-0.6 0.56-1.16 1.28z" fill="#14508C"/>
  <path d="m34.94 88.84c-0.32 2.17 0.83 3.89 2.47 3.89h48.35c1.49-2.74 3.03-5.18 4.08-6.36h-53.08c-0.84 0-1.62 1.14-1.82 2.47z" fill="#14508C"/>
  <path d="m34.72 104.3c0 2.54 1.79 3.69 2.81 3.69h40.18c0.65-2.74 1.5-5.18 2.24-6.63h-42.42c-1.43 0-2.81 1.33-2.81 2.94z" fill="#14508C"/>
  <path d="m34.72 120.1c0 2.09 1.76 3.35 2.81 3.35h36.93c0-2.74 0.21-4.89 0.44-6.76h-37.65c-1.6 0-2.53 1.68-2.53 3.41z" fill="#14508C"/>
  <path d="m34.43 135.9c0 2.27 1.68 3.53 2.79 3.53h38.29c-0.52-2.44-0.84-4.46-0.92-6.63h-37.58c-1.65 0-2.58 1.6-2.58 3.1z" fill="#14508C"/>
  <path d="m34.15 151.4c0 2.35 1.7 3.91 3.03 3.91h44.31c-1.46-2.74-2.7-5.77-3.44-7.29h-41.04c-1.93 0-2.86 1.83-2.86 3.38z" fill="#14508C"/>
  <path d="m34.43 167.8c0 2.09 1.49 3.05 2.75 3.05h55.04c-2.74-2.74-4.55-5.18-5.42-6.36h-49.62c-1.62 0-2.75 1.71-2.75 3.31z" fill="#14508C"/>
  <path d="m34.15 183.6c0 2.44 1.77 3.34 3.03 3.34h78.61c-5.87-1.8-10.83-4.85-12.66-6.74h-65.95c-1.82 0-3.03 1.8-3.03 3.4z" fill="#14508C"/>
  <path d="m34.15 197.2c0 2.44 1.77 3.34 3.03 3.34h110.6c2.44 0 2.94-1.9 2.94-3.34 0-1.99-1.77-3.05-3.08-3.05h-110.1c-1.9 0-3.38 1.45-3.38 3.05z" fill="#14508C"/>
  <path d="m34.15 209.6c0 2.27 1.57 3.69 3.28 3.69h49.48c2.86 0 3.01-2.25 3.01-3.58 0-1.89-1.66-2.95-2.81-2.95h-49.82c-1.85 0-3.14 1.56-3.14 2.84z" fill="#14508C"/>
  <path d="m236.2 205.5-36.72-34.91c-3.4-3.16-7.45-2.9-10.52-1.92l-5.97-6.62c8.09-11.1 10.5-21.08 10.09-35.23-1.28-27.65-23.99-56.4-56.22-56.4-32.18 0-54.76 27.25-54.76 57.2 0 29.39 22.71 55.71 54.48 55.71 15.37 0 26.9-6.16 35.81-12.03l7.36 7.82c-0.66 4.59 0.21 8.01 2.96 10.65l35.17 34.42c5.98 5.98 14.41 3.06 17.86-1.02 4.61-5.28 4.12-13.17 0.46-17.67zm-99.48-34.6c-24.73 0-42.38-20.88-42.38-43.65 0-23.43 17.37-43.22 42.38-43.22 24.16 0 44.68 20.57 44.68 44 0 22.31-19.31 42.87-44.68 42.87z" fill="url(#paint0_linear_465_20374)"/>
  <path d="m137.4 90.01c-21.68 0-37.42 17.65-37.42 37.51 0 20.29 15.6 37.4 37.56 37.4 21.08 0 37.37-17.54 37.09-37.54-0.28-20.29-16.01-37.37-37.23-37.37z" fill="url(#paint1_linear_465_20374)"/>
  <defs>
    <linearGradient id="paint0_linear_465_20374" x1="107.8" x2="187.8" y1="167.7" y2="85.4" gradientUnits="userSpaceOnUse">
      <stop stop-color="#186EB0" offset="0"/>
      <stop stop-color="#0D4B86" offset="1"/>
    </linearGradient>
    <linearGradient id="paint1_linear_465_20374" x1="114.3" x2="160.7" y1="152.5" y2="99.27" gradientUnits="userSpaceOnUse">
      <stop stop-color="#37A7DF" offset="0"/>
      <stop stop-color="#71D7F7" offset="1"/>
    </linearGradient>
  </defs>
</svg>